ffmpeg started on 2025-05-12 at 20:14:22
Report written to "D:\Convert\FFMetrics\reports\ssim_report-6.txt"
Log level: 32
Command line:
ffmpeg -hide_banner -nostdin -i "G:\\\xc0\xed\xe8\xec\xe5\\\xce\xed\xe3\xee\xe8\xed\xe3\xe8\\!_35_\xcb\xe5\xf2\xee_2024\\DreamCast-1\\\xcf\xee\xeb\xf3\xed\xee\xf7\xed\xfb\xe9 \xf3\xe4\xe0\xf0\\[DC] Mayonaka Punch - 05_Telegram_HEVC.mkv" -i "G:\\\xc0\xed\xe8\xec\xe5\\\xce\xed\xe3\xee\xe8\xed\xe3\xe8\\!_35_\xcb\xe5\xf2\xee_2024\\DreamCast-1\\\xcf\xee\xeb\xf3\xed\xee\xf7\xed\xfb\xe9 \xf3\xe4\xe0\xf0\\[DC] Mayonaka Punch - 05_Telegram.mp4" -lavfi "[0:v]settb=AVTB,setpts=PTS-STARTPTS,format=pix_fmts=yuv420p10,fps=24000/1001,scale=1920:1080:flags=bicubic[main];[1:v]settb=AVTB,setpts=PTS-STARTPTS,format=pix_fmts=yuv420p,fps=24000/1001,scale=1920:1080:flags=bicubic[ref];[main][ref]ssim=eof_action=endall:stats_file='D\\:/Convert/FFMetrics/logs/ssim_logfile-6.txt'" -f null -
Input #0, matroska,webm, from 'G:\Аниме\Онгоинги\!_35_Лето_2024\DreamCast-1\Полуночный удар\[DC] Mayonaka Punch - 05_Telegram_HEVC.mkv':
  Metadata:
    COMPATIBLE_BRANDS: isomiso2avc1mp41
    MAJOR_BRAND     : isom
    MINOR_VERSION   : 512
    ENCODER         : Lavf61.7.100
  Duration: 00:23:46.69, start: -0.021000, bitrate: 1142 kb/s
  Stream #0:0: Video: hevc (Main 10), yuv420p10le(tv, bt709, progressive), 1920x1080 [SAR 1:1 DAR 16:9], 23.98 fps, 23.98 tbr, 1k tbn (default)
      Metadata:
        HANDLER_NAME    : VideoHandler
        VENDOR_ID       : [0][0][0][0]
        ENCODER         : Lavc61.19.100 libx265
        BPS             : 945156
        DURATION        : 00:23:46.633708333
        NUMBER_OF_FRAMES: 34205
        NUMBER_OF_BYTES : 168548868
        _STATISTICS_WRITING_APP: mkvpropedit v66.0.0 ('Josie') 64-bit
        _STATISTICS_WRITING_DATE_UTC: 2025-05-10 10:49:00
        _STATISTICS_TAGS: BPS DURATION NUMBER_OF_FRAMES NUMBER_OF_BYTES
  Stream #0:1: Audio: aac (LC), 48000 Hz, stereo, fltp (default)
      Metadata:
        HANDLER_NAME    : SoundHandler
        VENDOR_ID       : [0][0][0][0]
        ENCODER         : Lavc61.19.100 aac
        BPS             : 193582
        DURATION        : 00:23:46.688000000
        NUMBER_OF_FRAMES: 66877
        NUMBER_OF_BYTES : 34522720
        _STATISTICS_WRITING_APP: mkvpropedit v66.0.0 ('Josie') 64-bit
        _STATISTICS_WRITING_DATE_UTC: 2025-05-10 10:49:00
        _STATISTICS_TAGS: BPS DURATION NUMBER_OF_FRAMES NUMBER_OF_BYTES
Input #1, mov,mp4,m4a,3gp,3g2,mj2, from 'G:\Аниме\Онгоинги\!_35_Лето_2024\DreamCast-1\Полуночный удар\[DC] Mayonaka Punch - 05_Telegram.mp4':
  Metadata:
    major_brand     : isom
    minor_version   : 512
    compatible_brands: isomiso2avc1mp41
    encoder         : Lavf61.1.100
  Duration: 00:23:46.66, start: 0.000000, bitrate: 3732 kb/s
  Stream #1:0[0x1](und): Video: h264 (High) (avc1 / 0x31637661), yuv420p(tv, bt709, progressive), 1920x1080 [SAR 1:1 DAR 16:9], 3584 kb/s, 23.98 fps, 23.98 tbr, 24k tbn (default)
      Metadata:
        handler_name    : VideoHandler
        vendor_id       : [0][0][0][0]
        encoder         : Lavc61.3.100 h264_qsv
  Stream #1:1[0x2](und): Audio: aac (HE-AACv2) (mp4a / 0x6134706D), 48000 Hz, stereo, fltp, 144 kb/s (default)
      Metadata:
        handler_name    : SoundHandler
        vendor_id       : [0][0][0][0]
Stream mapping:
  Stream #0:0 (hevc) -> settb:default
  Stream #1:0 (h264) -> settb:default
  ssim:default -> Stream #0:0 (wrapped_avframe)
  Stream #0:1 -> #0:1 (aac (native) -> pcm_s16le (native))
Output #0, null, to 'pipe:':
  Metadata:
    COMPATIBLE_BRANDS: isomiso2avc1mp41
    MAJOR_BRAND     : isom
    MINOR_VERSION   : 512
    encoder         : Lavf61.7.100
  Stream #0:0: Video: wrapped_avframe, yuv420p10le(tv, bt709, progressive), 1920x1080 [SAR 1:1 DAR 16:9], q=2-31, 200 kb/s, 23.98 fps, 23.98 tbn
      Metadata:
        encoder         : Lavc61.19.100 wrapped_avframe
  Stream #0:1: Audio: pcm_s16le, 48000 Hz, stereo, s16, 1536 kb/s (default)
      Metadata:
        HANDLER_NAME    : SoundHandler
        VENDOR_ID       : [0][0][0][0]
        _STATISTICS_TAGS: BPS DURATION NUMBER_OF_FRAMES NUMBER_OF_BYTES
        BPS             : 193582
        DURATION        : 00:23:46.688000000
        NUMBER_OF_FRAMES: 66877
        NUMBER_OF_BYTES : 34522720
        _STATISTICS_WRITING_APP: mkvpropedit v66.0.0 ('Josie') 64-bit
        _STATISTICS_WRITING_DATE_UTC: 2025-05-10 10:49:00
        encoder         : Lavc61.19.100 pcm_s16le
frame=  172 fps=0.0 q=-0.0 size=N/A time=00:00:07.17 bitrate=N/A speed=13.8x    frame=  425 fps=408 q=-0.0 size=N/A time=00:00:17.72 bitrate=N/A speed=  17x    frame=  662 fps=426 q=-0.0 size=N/A time=00:00:27.61 bitrate=N/A speed=17.8x    frame=  915 fps=442 q=-0.0 size=N/A time=00:00:38.16 bitrate=N/A speed=18.4x    frame= 1171 fps=452 q=-0.0 size=N/A time=00:00:48.84 bitrate=N/A speed=18.9x    frame= 1409 fps=456 q=-0.0 size=N/A time=00:00:58.76 bitrate=N/A speed=  19x    frame= 1660 fps=460 q=-0.0 size=N/A time=00:01:09.23 bitrate=N/A speed=19.2x    frame= 1903 fps=461 q=-0.0 size=N/A time=00:01:19.37 bitrate=N/A speed=19.2x    frame= 2102 fps=452 q=-0.0 size=N/A time=00:01:27.67 bitrate=N/A speed=18.9x    frame= 2254 fps=437 q=-0.0 size=N/A time=00:01:34.01 bitrate=N/A speed=18.2x    frame= 2405 fps=424 q=-0.0 size=N/A time=00:01:40.30 bitrate=N/A speed=17.7x    frame= 2580 fps=416 q=-0.0 size=N/A time=00:01:47.60 bitrate=N/A speed=17.4x    frame= 2747 fps=409 q=-0.0 size=N/A time=00:01:54.57 bitrate=N/A speed=17.1x    frame= 2916 fps=404 q=-0.0 size=N/A time=00:02:01.62 bitrate=N/A speed=16.9x    frame= 3085 fps=399 q=-0.0 size=N/A time=00:02:08.67 bitrate=N/A speed=16.6x    frame= 3281 fps=397 q=-0.0 size=N/A time=00:02:16.84 bitrate=N/A speed=16.6x    frame= 3480 fps=397 q=-0.0 size=N/A time=00:02:25.14 bitrate=N/A speed=16.5x    frame= 3667 fps=395 q=-0.0 size=N/A time=00:02:32.94 bitrate=N/A speed=16.5x    frame= 3856 fps=394 q=-0.0 size=N/A time=00:02:40.82 bitrate=N/A speed=16.4x    frame= 4029 fps=390 q=-0.0 size=N/A time=00:02:48.04 bitrate=N/A speed=16.3x    frame= 4209 fps=388 q=-0.0 size=N/A time=00:02:55.55 bitrate=N/A speed=16.2x    frame= 4406 fps=389 q=-0.0 size=N/A time=00:03:03.76 bitrate=N/A speed=16.2x    frame= 4603 fps=388 q=-0.0 size=N/A time=00:03:11.98 bitrate=N/A speed=16.2x    frame= 4847 fps=391 q=-0.0 size=N/A time=00:03:22.16 bitrate=N/A speed=16.3x    frame= 5089 fps=395 q=-0.0 size=N/A time=00:03:32.25 bitrate=N/A speed=16.5x    frame= 5314 fps=396 q=-0.0 size=N/A time=00:03:41.63 bitrate=N/A speed=16.5x    frame= 5566 fps=400 q=-0.0 size=N/A time=00:03:52.14 bitrate=N/A speed=16.7x    frame= 5803 fps=402 q=-0.0 size=N/A time=00:04:02.03 bitrate=N/A speed=16.8x    frame= 6034 fps=403 q=-0.0 size=N/A time=00:04:11.66 bitrate=N/A speed=16.8x    frame= 6273 fps=405 q=-0.0 size=N/A time=00:04:21.63 bitrate=N/A speed=16.9x    frame= 6505 fps=407 q=-0.0 size=N/A time=00:04:31.31 bitrate=N/A speed=  17x    frame= 6759 fps=410 q=-0.0 size=N/A time=00:04:41.90 bitrate=N/A speed=17.1x    frame= 6992 fps=411 q=-0.0 size=N/A time=00:04:51.62 bitrate=N/A speed=17.1x    frame= 7228 fps=412 q=-0.0 size=N/A time=00:05:01.46 bitrate=N/A speed=17.2x    frame= 7465 fps=413 q=-0.0 size=N/A time=00:05:11.35 bitrate=N/A speed=17.2x    frame= 7709 fps=415 q=-0.0 size=N/A time=00:05:21.52 bitrate=N/A speed=17.3x    frame= 7926 fps=416 q=-0.0 size=N/A time=00:05:30.58 bitrate=N/A speed=17.3x    frame= 8173 fps=417 q=-0.0 size=N/A time=00:05:40.88 bitrate=N/A speed=17.4x    frame= 8423 fps=419 q=-0.0 size=N/A time=00:05:51.30 bitrate=N/A speed=17.5x    frame= 8640 fps=419 q=-0.0 size=N/A time=00:06:00.36 bitrate=N/A speed=17.5x    frame= 8869 fps=419 q=-0.0 size=N/A time=00:06:09.91 bitrate=N/A speed=17.5x    frame= 9121 fps=421 q=-0.0 size=N/A time=00:06:20.42 bitrate=N/A speed=17.6x    frame= 9378 fps=423 q=-0.0 size=N/A time=00:06:31.14 bitrate=N/A speed=17.6x    frame= 9610 fps=423 q=-0.0 size=N/A time=00:06:40.81 bitrate=N/A speed=17.7x    frame= 9837 fps=424 q=-0.0 size=N/A time=00:06:50.28 bitrate=N/A speed=17.7x    frame=10067 fps=424 q=-0.0 size=N/A time=00:06:59.87 bitrate=N/A speed=17.7x    frame=10298 fps=425 q=-0.0 size=N/A time=00:07:09.51 bitrate=N/A speed=17.7x    frame=10554 fps=426 q=-0.0 size=N/A time=00:07:20.18 bitrate=N/A speed=17.8x    frame=10773 fps=426 q=-0.0 size=N/A time=00:07:29.32 bitrate=N/A speed=17.8x    frame=11012 fps=427 q=-0.0 size=N/A time=00:07:39.29 bitrate=N/A speed=17.8x    frame=11247 fps=427 q=-0.0 size=N/A time=00:07:49.09 bitrate=N/A speed=17.8x    frame=11472 fps=428 q=-0.0 size=N/A time=00:07:58.47 bitrate=N/A speed=17.8x    frame=11701 fps=428 q=-0.0 size=N/A time=00:08:08.02 bitrate=N/A speed=17.8x    frame=11955 fps=429 q=-0.0 size=N/A time=00:08:18.62 bitrate=N/A speed=17.9x    frame=12151 fps=428 q=-0.0 size=N/A time=00:08:26.79 bitrate=N/A speed=17.9x    frame=12403 fps=429 q=-0.0 size=N/A time=00:08:37.30 bitrate=N/A speed=17.9x    frame=12647 fps=430 q=-0.0 size=N/A time=00:08:47.48 bitrate=N/A speed=17.9x    frame=12897 fps=431 q=-0.0 size=N/A time=00:08:57.91 bitrate=N/A speed=  18x    frame=13149 fps=432 q=-0.0 size=N/A time=00:09:08.42 bitrate=N/A speed=  18x    frame=13385 fps=432 q=-0.0 size=N/A time=00:09:18.26 bitrate=N/A speed=  18x    frame=13618 fps=433 q=-0.0 size=N/A time=00:09:27.98 bitrate=N/A speed=18.1x    frame=13870 fps=434 q=-0.0 size=N/A time=00:09:38.49 bitrate=N/A speed=18.1x    frame=14130 fps=435 q=-0.0 size=N/A time=00:09:49.33 bitrate=N/A speed=18.1x    frame=14384 fps=436 q=-0.0 size=N/A time=00:09:59.93 bitrate=N/A speed=18.2x    frame=14632 fps=436 q=-0.0 size=N/A time=00:10:10.27 bitrate=N/A speed=18.2x    frame=14870 fps=437 q=-0.0 size=N/A time=00:10:20.20 bitrate=N/A speed=18.2x    frame=15101 fps=437 q=-0.0 size=N/A time=00:10:29.83 bitrate=N/A speed=18.2x    frame=15330 fps=437 q=-0.0 size=N/A time=00:10:39.38 bitrate=N/A speed=18.2x    frame=15560 fps=437 q=-0.0 size=N/A time=00:10:48.98 bitrate=N/A speed=18.2x    frame=15773 fps=437 q=-0.0 size=N/A time=00:10:57.86 bitrate=N/A speed=18.2x    frame=15960 fps=436 q=-0.0 size=N/A time=00:11:05.66 bitrate=N/A speed=18.2x    frame=16150 fps=435 q=-0.0 size=N/A time=00:11:13.58 bitrate=N/A speed=18.1x    frame=16346 fps=434 q=-0.0 size=N/A time=00:11:21.76 bitrate=N/A speed=18.1x    frame=16568 fps=434 q=-0.0 size=N/A time=00:11:31.02 bitrate=N/A speed=18.1x    frame=16798 fps=434 q=-0.0 size=N/A time=00:11:40.61 bitrate=N/A speed=18.1x    frame=17062 fps=435 q=-0.0 size=N/A time=00:11:51.62 bitrate=N/A speed=18.2x    frame=17331 fps=436 q=-0.0 size=N/A time=00:12:02.84 bitrate=N/A speed=18.2x    frame=17596 fps=437 q=-0.0 size=N/A time=00:12:13.89 bitrate=N/A speed=18.2x    frame=17826 fps=437 q=-0.0 size=N/A time=00:12:23.49 bitrate=N/A speed=18.2x    frame=18060 fps=437 q=-0.0 size=N/A time=00:12:33.25 bitrate=N/A speed=18.2x    frame=18289 fps=438 q=-0.0 size=N/A time=00:12:42.80 bitrate=N/A speed=18.3x    frame=18477 fps=437 q=-0.0 size=N/A time=00:12:50.64 bitrate=N/A speed=18.2x    frame=18660 fps=436 q=-0.0 size=N/A time=00:12:58.27 bitrate=N/A speed=18.2x    frame=18862 fps=435 q=-0.0 size=N/A time=00:13:06.70 bitrate=N/A speed=18.1x    frame=19073 fps=435 q=-0.0 size=N/A time=00:13:15.50 bitrate=N/A speed=18.1x    frame=19300 fps=435 q=-0.0 size=N/A time=00:13:24.97 bitrate=N/A speed=18.1x    frame=19558 fps=436 q=-0.0 size=N/A time=00:13:35.73 bitrate=N/A speed=18.2x    frame=19788 fps=436 q=-0.0 size=N/A time=00:13:45.32 bitrate=N/A speed=18.2x    frame=19988 fps=435 q=-0.0 size=N/A time=00:13:53.66 bitrate=N/A speed=18.2x    frame=20180 fps=434 q=-0.0 size=N/A time=00:14:01.67 bitrate=N/A speed=18.1x    frame=20373 fps=434 q=-0.0 size=N/A time=00:14:09.72 bitrate=N/A speed=18.1x    frame=20548 fps=433 q=-0.0 size=N/A time=00:14:17.02 bitrate=N/A speed=18.1x    frame=20747 fps=432 q=-0.0 size=N/A time=00:14:25.32 bitrate=N/A speed=  18x    frame=20950 fps=432 q=-0.0 size=N/A time=00:14:33.78 bitrate=N/A speed=  18x    frame=21141 fps=431 q=-0.0 size=N/A time=00:14:41.75 bitrate=N/A speed=  18x    frame=21382 fps=432 q=-0.0 size=N/A time=00:14:51.80 bitrate=N/A speed=  18x    frame=21629 fps=432 q=-0.0 size=N/A time=00:15:02.10 bitrate=N/A speed=  18x    frame=21880 fps=433 q=-0.0 size=N/A time=00:15:12.57 bitrate=N/A speed=  18x    frame=22113 fps=433 q=-0.0 size=N/A time=00:15:22.29 bitrate=N/A speed=18.1x    frame=22348 fps=433 q=-0.0 size=N/A time=00:15:32.09 bitrate=N/A speed=18.1x    frame=22589 fps=433 q=-0.0 size=N/A time=00:15:42.14 bitrate=N/A speed=18.1x    frame=22819 fps=434 q=-0.0 size=N/A time=00:15:51.74 bitrate=N/A speed=18.1x    frame=23040 fps=434 q=-0.0 size=N/A time=00:16:00.96 bitrate=N/A speed=18.1x    frame=23286 fps=434 q=-0.0 size=N/A time=00:16:11.22 bitrate=N/A speed=18.1x    frame=23516 fps=434 q=-0.0 size=N/A time=00:16:20.81 bitrate=N/A speed=18.1x    frame=23761 fps=434 q=-0.0 size=N/A time=00:16:31.03 bitrate=N/A speed=18.1x    frame=24012 fps=435 q=-0.0 size=N/A time=00:16:41.50 bitrate=N/A speed=18.1x    frame=24258 fps=435 q=-0.0 size=N/A time=00:16:51.76 bitrate=N/A speed=18.2x    frame=24527 fps=436 q=-0.0 size=N/A time=00:17:02.98 bitrate=N/A speed=18.2x    frame=24787 fps=437 q=-0.0 size=N/A time=00:17:13.82 bitrate=N/A speed=18.2x    frame=25023 fps=437 q=-0.0 size=N/A time=00:17:23.66 bitrate=N/A speed=18.2x    frame=25280 fps=437 q=-0.0 size=N/A time=00:17:34.38 bitrate=N/A speed=18.2x    frame=25529 fps=438 q=-0.0 size=N/A time=00:17:44.77 bitrate=N/A speed=18.3x    frame=25774 fps=438 q=-0.0 size=N/A time=00:17:54.99 bitrate=N/A speed=18.3x    frame=26012 fps=438 q=-0.0 size=N/A time=00:18:04.91 bitrate=N/A speed=18.3x    frame=26268 fps=439 q=-0.0 size=N/A time=00:18:15.59 bitrate=N/A speed=18.3x    frame=26539 fps=440 q=-0.0 size=N/A time=00:18:26.89 bitrate=N/A speed=18.3x    frame=26790 fps=440 q=-0.0 size=N/A time=00:18:37.36 bitrate=N/A speed=18.4x    frame=27046 fps=441 q=-0.0 size=N/A time=00:18:48.04 bitrate=N/A speed=18.4x    frame=27266 fps=440 q=-0.0 size=N/A time=00:18:57.21 bitrate=N/A speed=18.4x    frame=27509 fps=441 q=-0.0 size=N/A time=00:19:07.35 bitrate=N/A speed=18.4x    frame=27755 fps=441 q=-0.0 size=N/A time=00:19:17.61 bitrate=N/A speed=18.4x    frame=28021 fps=442 q=-0.0 size=N/A time=00:19:28.70 bitrate=N/A speed=18.4x    frame=28263 fps=442 q=-0.0 size=N/A time=00:19:38.80 bitrate=N/A speed=18.4x    frame=28496 fps=442 q=-0.0 size=N/A time=00:19:48.52 bitrate=N/A speed=18.4x    frame=28758 fps=442 q=-0.0 size=N/A time=00:19:59.44 bitrate=N/A speed=18.5x    frame=29009 fps=443 q=-0.0 size=N/A time=00:20:09.91 bitrate=N/A speed=18.5x    frame=29279 fps=443 q=-0.0 size=N/A time=00:20:21.17 bitrate=N/A speed=18.5x    frame=29527 fps=444 q=-0.0 size=N/A time=00:20:31.52 bitrate=N/A speed=18.5x    frame=29771 fps=444 q=-0.0 size=N/A time=00:20:41.69 bitrate=N/A speed=18.5x    frame=30015 fps=444 q=-0.0 size=N/A time=00:20:51.87 bitrate=N/A speed=18.5x    frame=30271 fps=445 q=-0.0 size=N/A time=00:21:02.55 bitrate=N/A speed=18.5x    frame=30532 fps=445 q=-0.0 size=N/A time=00:21:13.43 bitrate=N/A speed=18.6x    frame=30779 fps=445 q=-0.0 size=N/A time=00:21:23.74 bitrate=N/A speed=18.6x    frame=31013 fps=445 q=-0.0 size=N/A time=00:21:33.50 bitrate=N/A speed=18.6x    frame=31270 fps=446 q=-0.0 size=N/A time=00:21:44.21 bitrate=N/A speed=18.6x    frame=31521 fps=446 q=-0.0 size=N/A time=00:21:54.68 bitrate=N/A speed=18.6x    frame=31762 fps=446 q=-0.0 size=N/A time=00:22:04.74 bitrate=N/A speed=18.6x    frame=32006 fps=446 q=-0.0 size=N/A time=00:22:14.91 bitrate=N/A speed=18.6x    frame=32244 fps=446 q=-0.0 size=N/A time=00:22:24.84 bitrate=N/A speed=18.6x    frame=32459 fps=446 q=-0.0 size=N/A time=00:22:33.81 bitrate=N/A speed=18.6x    frame=32682 fps=446 q=-0.0 size=N/A time=00:22:43.11 bitrate=N/A speed=18.6x    frame=32886 fps=446 q=-0.0 size=N/A time=00:22:51.62 bitrate=N/A speed=18.6x    frame=33065 fps=445 q=-0.0 size=N/A time=00:22:59.08 bitrate=N/A speed=18.6x    frame=33252 fps=445 q=-0.0 size=N/A time=00:23:06.88 bitrate=N/A speed=18.5x    frame=33467 fps=444 q=-0.0 size=N/A time=00:23:15.85 bitrate=N/A speed=18.5x    frame=33682 fps=444 q=-0.0 size=N/A time=00:23:24.82 bitrate=N/A speed=18.5x    frame=33894 fps=444 q=-0.0 size=N/A time=00:23:33.66 bitrate=N/A speed=18.5x    frame=34088 fps=444 q=-0.0 size=N/A time=00:23:41.75 bitrate=N/A speed=18.5x    [Parsed_ssim_10 @ 0000021cd4d8b700] SSIM Y:0.992946 (21.515464) U:0.993853 (22.113153) V:0.994105 (22.295066) All:0.993290 (21.732817)
[out#0/null @ 0000021cd3664340] video:14697KiB audio:267508KiB subtitle:0KiB other streams:0KiB global headers:0KiB muxing overhead: unknown
frame=34205 fps=443 q=-0.0 Lsize=N/A time=00:23:46.63 bitrate=N/A speed=18.5x    
